<?xml version="1.0" encoding="utf-8"?>
<!-- Generator: Adobe Illustrator 19.0.0, SVG Export Plug-In . SVG Version: 6.00 Build 0)  -->
<svg version="1.1" id="Layer_1" xmlns="http://www.w3.org/2000/svg" xmlns:xlink="http://www.w3.org/1999/xlink" x="0px" y="0px"
	 viewBox="0 0 612 298" style="enable-background:new 0 0 612 298;" xml:space="preserve">
<style type="text/css">
	.st0{clip-path:url(#XMLID_89_);fill:#FFFFFF;}
	.st1{fill:#FFFFFF;}
</style>
<g id="XMLID_12_">
	<defs>
		<rect id="XMLID_2_" x="24.8" y="64.9" width="577.5" height="187.1"/>
	</defs>
	<clipPath id="XMLID_89_">
		<use xlink:href="#XMLID_2_"  style="overflow:visible;"/>
	</clipPath>
	<path id="XMLID_14_" class="st0" d="M575.4,108c-2.3-7.5-5.7-14-10.1-19.6c-4.5-5.6-10.1-10-16.7-13.3c-6.7-3.2-14.4-4.9-23.2-4.9
		c-7.4,0-14.3,1.4-20.7,4.2c-6.4,2.8-12,6.9-16.9,12.2c-4.8,5.4-8.7,11.8-11.7,19.4c-3,7.5-4.7,16.1-5.3,25.5h108
		C578.9,123.3,577.7,115.4,575.4,108 M474.2,162.2c2,7.8,5.1,14.6,9.3,20.4c4.2,5.8,9.7,10.4,16.3,13.7c6.7,3.3,14.8,5,24.5,5
		c14.2,0,26-3.7,35.4-11.2c9.4-7.5,15.2-18.6,17.5-33.6h5.3c-1.9,15.8-8.2,28-18.7,36.7c-10.5,8.7-23.5,13-39,13
		c-10.5,0.2-19.5-1.5-27-5c-7.5-3.5-13.6-8.5-18.3-14.9c-4.7-6.4-8.3-14-10.5-22.6c-2.3-8.7-3.4-18-3.4-28c0-11.2,1.7-21.2,5-30
		c3.3-8.8,7.7-16.2,13.2-22.3c5.4-6.1,11.8-10.7,19-13.8c7.2-3.2,14.6-4.7,22.1-4.7c10.5,0,19.6,2,27.3,6.1
		c7.6,4,13.9,9.4,18.7,16.1c4.8,6.7,8.3,14.3,10.5,22.9c2.2,8.6,3.1,17.6,2.8,26.9H470.9C471.1,145.9,472.2,154.4,474.2,162.2
		 M273.9,68.1v33.4h0.5c1.2-5.3,3.2-10.1,5.8-14.5c2.6-4.4,5.9-8.2,9.7-11.6c3.9-3.3,8.1-5.9,12.8-7.8c4.6-1.8,9.6-2.8,14.9-2.8
		c10.5-0.4,19.4,2.3,26.5,8c7.1,5.7,11.8,13.6,14.1,23.6h0.5c2.6-9.5,7.8-17.1,15.5-22.9c7.7-5.8,16.9-8.7,27.4-8.7
		c8.2,0,15.1,1.2,20.5,3.7c5.4,2.5,9.8,5.8,13.2,10.1c3.3,4.3,5.7,9.5,7.1,15.5c1.4,6.1,2.1,12.8,2.1,20.1v89h-5.3v-89
		c0-6.7-0.6-12.7-1.7-18.2c-1.1-5.4-3.2-10.1-6.1-14c-2.9-3.9-6.8-6.8-11.6-9c-4.8-2.1-10.9-3.2-18.3-3.2c-6.5,0-12.4,1.3-17.6,3.8
		c-5.3,2.5-9.7,6-13.4,10.4c-3.7,4.4-6.5,9.4-8.4,15.1c-1.9,5.7-2.9,11.7-2.9,18v85.8H354v-86.9c0-6.3-0.5-12.3-1.4-17.9
		c-1-5.6-2.8-10.5-5.4-14.7c-2.6-4.2-6.3-7.5-11.1-10c-4.7-2.5-10.9-3.7-18.4-3.7c-6.7,0-12.7,1.5-18.2,4.6
		c-5.4,3.1-10.1,7.2-13.8,12.4c-3.8,5.2-6.7,11.2-8.7,18c-2,6.8-3,14-3,21.6v76.6h-5.3V68.1H273.9z M234.4,68.1h5.3v135.3h-5.3V68.1
		z M166.2,203.4V68.1h5.3v33.4h0.5c1.2-5.1,3.2-9.9,5.8-14.4c2.6-4.5,6.1-8.4,10.5-11.7c4.4-3.3,9.6-6,15.7-7.9
		c6.1-1.9,13.1-2.8,21.2-2.6v5.3c-9.3-0.5-17.3,0.7-24.1,3.8c-6.8,3.1-12.3,7.3-16.7,12.6c-4.4,5.4-7.6,11.5-9.7,18.6
		c-2.1,7-3.2,14.2-3.2,21.6v76.6H166.2z M108.7,195.4c6.6-3.9,12-9,16.2-15.3c4.2-6.2,7.3-13.3,9.3-21.1c2-7.8,3-15.7,3-23.6
		c0-8.8-1.1-17.1-3.3-24.9c-2.2-7.8-5.4-14.7-9.7-20.8c-4.3-6.1-9.7-10.8-16.3-14.4c-6.6-3.5-14.3-5.3-23-5.3
		c-8.6,0-16.3,1.8-23.2,5.3c-6.8,3.5-12.6,8.3-17.2,14.2c-4.7,6-8.2,12.9-10.7,20.8c-2.5,7.9-3.7,16.2-3.7,25c0,21.2,5,37.5,15,48.8
		c10,11.3,23.3,17,39.8,17C94.2,201.3,102.1,199.3,108.7,195.4 M24.8,249.8V68.1h5.3V106h0.5c1.8-6,4.3-11.5,7.6-16.5
		c3.3-5,7.3-9.3,11.8-13c4.6-3.7,9.8-6.5,15.7-8.6c5.9-2,12.2-3,19.1-3c9,0,17,1.8,24.1,5.3c7.1,3.5,13.2,8.4,18.2,14.7
		c5,6.3,8.8,13.8,11.5,22.4c2.6,8.6,3.9,18,3.9,28.2c0,9.5-1.3,18.5-3.8,27.1c-2.5,8.6-6.2,16.2-11.1,22.6
		c-4.8,6.5-10.8,11.6-18,15.4c-7.2,3.8-15.4,5.7-24.8,5.7c-14.4,0-26.2-3.7-35.5-11.2c-9.3-7.5-15.5-17.3-18.7-29.6h-0.5v84.3H24.8z
		"/>
</g>
<g id="XMLID_10_">
	<path id="XMLID_11_" class="st1" d="M365,220.3h6.8c2.7,0,5.2,0.9,5.2,3.9c0,1.7-1.1,3.3-2.8,3.6v0c2.1,0.3,3.4,1.8,3.4,3.9
		c0,1.5-0.5,4.6-5.8,4.6H365V220.3z M366.5,227.4h5.3c2.4,0,3.6-1.2,3.6-2.7c0-2-1.2-3-3.6-3h-5.3V227.4z M366.5,235.1h5.3
		c2.3,0,4.2-0.7,4.2-3.3c0-2.1-1.5-3.1-4.2-3.1h-5.3V235.1z"/>
	<path id="XMLID_17_" class="st1" d="M384.7,229.8l-6.3-9.5h1.8l5.3,8.2l5.3-8.2h1.8l-6.4,9.5v6.6h-1.5V229.8z"/>
	<path id="XMLID_19_" class="st1" d="M398,220.3h12.8v1.3h-5.6v14.8h-1.5v-14.8H398V220.3z"/>
	<path id="XMLID_21_" class="st1" d="M412.8,220.3h1.5v7h9.6v-7h1.5v16.1h-1.5v-7.8h-9.6v7.8h-1.5V220.3z"/>
	<path id="XMLID_23_" class="st1" d="M429.1,220.3h11.1v1.3h-9.6v5.8h9v1.3h-9v6.4h9.7v1.3h-11.2V220.3z"/>
	<path id="XMLID_25_" class="st1" d="M449.2,220.3h5.6c4.9,0.1,7.4,2.7,7.4,8.1s-2.5,7.9-7.4,8.1h-5.6V220.3z M450.7,235.1h3.3
		c4.6,0,6.6-1.9,6.6-6.7s-2-6.7-6.6-6.7h-3.3V235.1z"/>
	<path id="XMLID_28_" class="st1" d="M469.5,220.3h1.7l6.3,16.1h-1.6l-2-5h-7.3l-1.9,5H463L469.5,220.3z M467.1,230.1h6.3l-3.1-8.3
		L467.1,230.1z"/>
	<path id="XMLID_31_" class="st1" d="M479.6,220.3h1.5v16.1h-1.5V220.3z"/>
	<path id="XMLID_33_" class="st1" d="M484.9,220.3h1.5v14.8h9v1.3h-10.6V220.3z"/>
	<path id="XMLID_35_" class="st1" d="M500.1,229.8l-6.3-9.5h1.8l5.3,8.2l5.3-8.2h1.8l-6.4,9.5v6.6h-1.5V229.8z"/>
	<path id="XMLID_37_" class="st1" d="M516.1,220.3h6.8c2.7,0,5.2,0.9,5.2,3.9c0,1.7-1.1,3.3-2.8,3.6v0c2.1,0.3,3.4,1.8,3.4,3.9
		c0,1.5-0.5,4.6-5.8,4.6h-6.8V220.3z M517.6,227.4h5.3c2.4,0,3.6-1.2,3.6-2.7c0-2-1.2-3-3.6-3h-5.3V227.4z M517.6,235.1h5.3
		c2.3,0,4.2-0.7,4.2-3.3c0-2.1-1.5-3.1-4.2-3.1h-5.3V235.1z"/>
	<path id="XMLID_41_" class="st1" d="M531.6,220.3h7.4c2.6,0,4.9,1.3,4.9,4.2c0,2.1-1.1,3.7-3.1,4.1v0c2.1,0.3,2.7,1.7,2.8,3.6
		c0.1,1.1,0.1,3.3,0.7,4.1h-1.7c-0.4-0.6-0.4-1.8-0.4-2.5c-0.1-2.3-0.3-4.8-3.2-4.6h-5.8v7.2h-1.5V220.3z M533.1,227.9h5.7
		c1.9,0,3.5-1.2,3.5-3.1c0-2-1.2-3.2-3.5-3.2h-5.7V227.9z"/>
	<path id="XMLID_44_" class="st1" d="M546.9,220.3h1.5v10c0,3.7,1.7,5.2,4.7,5.2c3,0,4.7-1.4,4.7-5.2v-10h1.5v10.3
		c0,3.3-1.8,6.1-6.3,6.1c-4.4,0-6.3-2.8-6.3-6.1V220.3z"/>
	<path id="XMLID_46_" class="st1" d="M563.1,220.3h1.5v16.1h-1.5V220.3z"/>
	<path id="XMLID_48_" class="st1" d="M568.4,220.3h1.7l9.4,13.6h0v-13.6h1.5v16.1h-1.7l-9.4-13.6h0v13.6h-1.5V220.3z"/>
</g>
</svg>
